<?xml version="1.0" encoding="UTF-8" standalone="no"?>
<!DOCTYPE svg PUBLIC "-//W3C//DTD SVG 1.1//EN"
 "http://www.w3.org/Graphics/SVG/1.1/DTD/svg11.dtd">
<!-- Generated by graphviz version 2.40.1 (20161225.0304)
 -->
<!-- Title: UmlClassDiagram Pages: 1 -->
<svg width="1522pt" height="2407pt"
 viewBox="0.00 0.00 1522.23 2407.00" xmlns="http://www.w3.org/2000/svg" xmlns:xlink="http://www.w3.org/1999/xlink">
<g id="graph0" class="graph" transform="scale(1 1) rotate(0) translate(4 2403)">
<title>UmlClassDiagram</title>
<polygon fill="#ffffff" stroke="transparent" points="-4,4 -4,-2403 1518.2257,-2403 1518.2257,4 -4,4"/>
<!-- 6 -->
<g id="node1" class="node">
<title>6</title>
<polygon fill="#f2f2f2" stroke="#000000" points="42.0408,-1149.9 42.0408,-1425.9 597.8108,-1425.9 597.8108,-1149.9 42.0408,-1149.9"/>
<text text-anchor="middle" x="319.9258" y="-1409.3" font-family="Times,serif" font-size="14.00" fill="#000000">TimedCrowdsale</text>
<polyline fill="none" stroke="#000000" points="42.0408,-1401.1 597.8108,-1401.1 "/>
<text text-anchor="start" x="50.0408" y="-1384.5" font-family="Times,serif" font-size="14.00" fill="#000000">Private:</text>
<text text-anchor="start" x="50.0408" y="-1367.7" font-family="Times,serif" font-size="14.00" fill="#000000"> &#160;&#160;_openingTime: uint256</text>
<text text-anchor="start" x="50.0408" y="-1350.9" font-family="Times,serif" font-size="14.00" fill="#000000"> &#160;&#160;_closingTime: uint256</text>
<polyline fill="none" stroke="#000000" points="42.0408,-1342.7 597.8108,-1342.7 "/>
<text text-anchor="start" x="50.0408" y="-1326.1" font-family="Times,serif" font-size="14.00" fill="#000000">Internal:</text>
<text text-anchor="start" x="50.0408" y="-1309.3" font-family="Times,serif" font-size="14.00" fill="#000000"> &#160;&#160;&#160;_preValidatePurchase(beneficiary: address, weiAmount: uint256)</text>
<text text-anchor="start" x="50.0408" y="-1292.5" font-family="Times,serif" font-size="14.00" fill="#000000"> &#160;&#160;&#160;_extendTime(newClosingTime: uint256)</text>
<text text-anchor="start" x="50.0408" y="-1275.7" font-family="Times,serif" font-size="14.00" fill="#000000">Public:</text>
<text text-anchor="start" x="50.0408" y="-1258.9" font-family="Times,serif" font-size="14.00" fill="#000000"> &#160;&#160;&#160;&lt;&lt;event&gt;&gt; TimedCrowdsaleExtended(prevClosingTime: uint256, newClosingTime: uint256)</text>
<text text-anchor="start" x="50.0408" y="-1242.1" font-family="Times,serif" font-size="14.00" fill="#000000"> &#160;&#160;&#160;&lt;&lt;modifier&gt;&gt; onlyWhileOpen()</text>
<text text-anchor="start" x="50.0408" y="-1225.3" font-family="Times,serif" font-size="14.00" fill="#000000"> &#160;&#160;&#160;constructor(openingTime: uint256, closingTime: uint256)</text>
<text text-anchor="start" x="50.0408" y="-1208.5" font-family="Times,serif" font-size="14.00" fill="#000000"> &#160;&#160;&#160;openingTime(): uint256</text>
<text text-anchor="start" x="50.0408" y="-1191.7" font-family="Times,serif" font-size="14.00" fill="#000000"> &#160;&#160;&#160;closingTime(): uint256</text>
<text text-anchor="start" x="50.0408" y="-1174.9" font-family="Times,serif" font-size="14.00" fill="#000000"> &#160;&#160;&#160;isOpen(): bool</text>
<text text-anchor="start" x="50.0408" y="-1158.1" font-family="Times,serif" font-size="14.00" fill="#000000"> &#160;&#160;&#160;hasClosed(): bool</text>
</g>
<!-- 0 -->
<g id="node2" class="node">
<title>0</title>
<polygon fill="#f2f2f2" stroke="#000000" points="224.4549,-2189.7 224.4549,-2364.9 459.3967,-2364.9 459.3967,-2189.7 224.4549,-2189.7"/>
<text text-anchor="middle" x="341.9258" y="-2348.3" font-family="Times,serif" font-size="14.00" fill="#000000">&lt;&lt;Library&gt;&gt;</text>
<text text-anchor="middle" x="341.9258" y="-2331.5" font-family="Times,serif" font-size="14.00" fill="#000000">SafeMath</text>
<polyline fill="none" stroke="#000000" points="224.4549,-2323.3 459.3967,-2323.3 "/>
<text text-anchor="middle" x="341.9258" y="-2306.7" font-family="Times,serif" font-size="14.00" fill="#000000"> </text>
<polyline fill="none" stroke="#000000" points="224.4549,-2298.5 459.3967,-2298.5 "/>
<text text-anchor="start" x="232.4549" y="-2281.9" font-family="Times,serif" font-size="14.00" fill="#000000">Internal:</text>
<text text-anchor="start" x="232.4549" y="-2265.1" font-family="Times,serif" font-size="14.00" fill="#000000"> &#160;&#160;&#160;add(a: uint256, b: uint256): uint256</text>
<text text-anchor="start" x="232.4549" y="-2248.3" font-family="Times,serif" font-size="14.00" fill="#000000"> &#160;&#160;&#160;sub(a: uint256, b: uint256): uint256</text>
<text text-anchor="start" x="232.4549" y="-2231.5" font-family="Times,serif" font-size="14.00" fill="#000000"> &#160;&#160;&#160;mul(a: uint256, b: uint256): uint256</text>
<text text-anchor="start" x="232.4549" y="-2214.7" font-family="Times,serif" font-size="14.00" fill="#000000"> &#160;&#160;&#160;div(a: uint256, b: uint256): uint256</text>
<text text-anchor="start" x="232.4549" y="-2197.9" font-family="Times,serif" font-size="14.00" fill="#000000"> &#160;&#160;&#160;mod(a: uint256, b: uint256): uint256</text>
</g>
<!-- 6&#45;&gt;0 -->
<g id="edge5" class="edge">
<title>6&#45;&gt;0</title>
<path fill="none" stroke="#000000" stroke-dasharray="5,2" d="M317.925,-1425.9626C316.3022,-1591.0518 315.9443,-1875.6792 327.9258,-2119.6 328.8732,-2138.8868 330.355,-2159.4645 332.0065,-2179.1721"/>
<polygon fill="#000000" stroke="#000000" points="328.5408,-2179.7233 332.8837,-2189.3871 335.5152,-2179.1243 328.5408,-2179.7233"/>
</g>
<!-- 5 -->
<g id="node6" class="node">
<title>5</title>
<polygon fill="#f2f2f2" stroke="#000000" points="370.31,-1462.9 370.31,-1873.3 983.5416,-1873.3 983.5416,-1462.9 370.31,-1462.9"/>
<text text-anchor="middle" x="676.9258" y="-1856.7" font-family="Times,serif" font-size="14.00" fill="#000000">Crowdsale</text>
<polyline fill="none" stroke="#000000" points="370.31,-1848.5 983.5416,-1848.5 "/>
<text text-anchor="start" x="378.31" y="-1831.9" font-family="Times,serif" font-size="14.00" fill="#000000">Private:</text>
<text text-anchor="start" x="378.31" y="-1815.1" font-family="Times,serif" font-size="14.00" fill="#000000"> &#160;&#160;_token: IERC20</text>
<text text-anchor="start" x="378.31" y="-1798.3" font-family="Times,serif" font-size="14.00" fill="#000000"> &#160;&#160;_wallet: address</text>
<text text-anchor="start" x="378.31" y="-1781.5" font-family="Times,serif" font-size="14.00" fill="#000000"> &#160;&#160;_rate: uint256</text>
<text text-anchor="start" x="378.31" y="-1764.7" font-family="Times,serif" font-size="14.00" fill="#000000"> &#160;&#160;_weiRaised: uint256</text>
<polyline fill="none" stroke="#000000" points="370.31,-1756.5 983.5416,-1756.5 "/>
<text text-anchor="start" x="378.31" y="-1739.9" font-family="Times,serif" font-size="14.00" fill="#000000">Internal:</text>
<text text-anchor="start" x="378.31" y="-1723.1" font-family="Times,serif" font-size="14.00" fill="#000000"> &#160;&#160;&#160;_preValidatePurchase(beneficiary: address, weiAmount: uint256)</text>
<text text-anchor="start" x="378.31" y="-1706.3" font-family="Times,serif" font-size="14.00" fill="#000000"> &#160;&#160;&#160;_postValidatePurchase(beneficiary: address, weiAmount: uint256)</text>
<text text-anchor="start" x="378.31" y="-1689.5" font-family="Times,serif" font-size="14.00" fill="#000000"> &#160;&#160;&#160;_deliverTokens(beneficiary: address, tokenAmount: uint256)</text>
<text text-anchor="start" x="378.31" y="-1672.7" font-family="Times,serif" font-size="14.00" fill="#000000"> &#160;&#160;&#160;_processPurchase(beneficiary: address, tokenAmount: uint256)</text>
<text text-anchor="start" x="378.31" y="-1655.9" font-family="Times,serif" font-size="14.00" fill="#000000"> &#160;&#160;&#160;_updatePurchasingState(beneficiary: address, weiAmount: uint256)</text>
<text text-anchor="start" x="378.31" y="-1639.1" font-family="Times,serif" font-size="14.00" fill="#000000"> &#160;&#160;&#160;_getTokenAmount(weiAmount: uint256): uint256</text>
<text text-anchor="start" x="378.31" y="-1622.3" font-family="Times,serif" font-size="14.00" fill="#000000"> &#160;&#160;&#160;_forwardFunds()</text>
<text text-anchor="start" x="378.31" y="-1605.5" font-family="Times,serif" font-size="14.00" fill="#000000">Public:</text>
<text text-anchor="start" x="378.31" y="-1588.7" font-family="Times,serif" font-size="14.00" fill="#000000"> &#160;&#160;&#160;&lt;&lt;fallback&gt;&gt; ()</text>
<text text-anchor="start" x="378.31" y="-1571.9" font-family="Times,serif" font-size="14.00" fill="#000000"> &#160;&#160;&#160;&lt;&lt;payable&gt;&gt; buyTokens(beneficiary: address)</text>
<text text-anchor="start" x="378.31" y="-1555.1" font-family="Times,serif" font-size="14.00" fill="#000000"> &#160;&#160;&#160;&lt;&lt;event&gt;&gt; TokensPurchased(purchaser: address, beneficiary: address, value: uint256, amount: uint256)</text>
<text text-anchor="start" x="378.31" y="-1538.3" font-family="Times,serif" font-size="14.00" fill="#000000"> &#160;&#160;&#160;constructor(rate: uint256, wallet: address, token: IERC20)</text>
<text text-anchor="start" x="378.31" y="-1521.5" font-family="Times,serif" font-size="14.00" fill="#000000"> &#160;&#160;&#160;token(): IERC20</text>
<text text-anchor="start" x="378.31" y="-1504.7" font-family="Times,serif" font-size="14.00" fill="#000000"> &#160;&#160;&#160;wallet(): address</text>
<text text-anchor="start" x="378.31" y="-1487.9" font-family="Times,serif" font-size="14.00" fill="#000000"> &#160;&#160;&#160;rate(): uint256</text>
<text text-anchor="start" x="378.31" y="-1471.1" font-family="Times,serif" font-size="14.00" fill="#000000"> &#160;&#160;&#160;weiRaised(): uint256</text>
</g>
<!-- 6&#45;&gt;5 -->
<g id="edge4" class="edge">
<title>6&#45;&gt;5</title>
<path fill="none" stroke="#000000" d="M449.5683,-1425.9674C454.1464,-1430.8431 458.771,-1435.7682 463.4287,-1440.7285"/>
<polygon fill="none" stroke="#000000" points="455.8312,-1447.9766 484.0211,-1462.6592 471.1402,-1433.6018 455.8312,-1447.9766"/>
</g>
<!-- 2 -->
<g id="node3" class="node">
<title>2</title>
<polygon fill="#f2f2f2" stroke="#000000" points="835.9012,-2223.3 835.9012,-2331.3 1057.9504,-2331.3 1057.9504,-2223.3 835.9012,-2223.3"/>
<text text-anchor="middle" x="946.9258" y="-2314.7" font-family="Times,serif" font-size="14.00" fill="#000000">&lt;&lt;Library&gt;&gt;</text>
<text text-anchor="middle" x="946.9258" y="-2297.9" font-family="Times,serif" font-size="14.00" fill="#000000">Address</text>
<polyline fill="none" stroke="#000000" points="835.9012,-2289.7 1057.9504,-2289.7 "/>
<text text-anchor="middle" x="946.9258" y="-2273.1" font-family="Times,serif" font-size="14.00" fill="#000000"> </text>
<polyline fill="none" stroke="#000000" points="835.9012,-2264.9 1057.9504,-2264.9 "/>
<text text-anchor="start" x="843.9012" y="-2248.3" font-family="Times,serif" font-size="14.00" fill="#000000">Internal:</text>
<text text-anchor="start" x="843.9012" y="-2231.5" font-family="Times,serif" font-size="14.00" fill="#000000"> &#160;&#160;&#160;isContract(account: address): bool</text>
</g>
<!-- 3 -->
<g id="node4" class="node">
<title>3</title>
<polygon fill="#f2f2f2" stroke="#000000" points="785.7693,-1910.3 785.7693,-2119.1 1248.0823,-2119.1 1248.0823,-1910.3 785.7693,-1910.3"/>
<text text-anchor="middle" x="1016.9258" y="-2102.5" font-family="Times,serif" font-size="14.00" fill="#000000">&lt;&lt;Library&gt;&gt;</text>
<text text-anchor="middle" x="1016.9258" y="-2085.7" font-family="Times,serif" font-size="14.00" fill="#000000">SafeERC20</text>
<polyline fill="none" stroke="#000000" points="785.7693,-2077.5 1248.0823,-2077.5 "/>
<text text-anchor="middle" x="1016.9258" y="-2060.9" font-family="Times,serif" font-size="14.00" fill="#000000"> </text>
<polyline fill="none" stroke="#000000" points="785.7693,-2052.7 1248.0823,-2052.7 "/>
<text text-anchor="start" x="793.7693" y="-2036.1" font-family="Times,serif" font-size="14.00" fill="#000000">Private:</text>
<text text-anchor="start" x="793.7693" y="-2019.3" font-family="Times,serif" font-size="14.00" fill="#000000"> &#160;&#160;&#160;callOptionalReturn(token: IERC20, data: bytes)</text>
<text text-anchor="start" x="793.7693" y="-2002.5" font-family="Times,serif" font-size="14.00" fill="#000000">Internal:</text>
<text text-anchor="start" x="793.7693" y="-1985.7" font-family="Times,serif" font-size="14.00" fill="#000000"> &#160;&#160;&#160;safeTransfer(token: IERC20, to: address, value: uint256)</text>
<text text-anchor="start" x="793.7693" y="-1968.9" font-family="Times,serif" font-size="14.00" fill="#000000"> &#160;&#160;&#160;safeTransferFrom(token: IERC20, from: address, to: address, value: uint256)</text>
<text text-anchor="start" x="793.7693" y="-1952.1" font-family="Times,serif" font-size="14.00" fill="#000000"> &#160;&#160;&#160;safeApprove(token: IERC20, spender: address, value: uint256)</text>
<text text-anchor="start" x="793.7693" y="-1935.3" font-family="Times,serif" font-size="14.00" fill="#000000"> &#160;&#160;&#160;safeIncreaseAllowance(token: IERC20, spender: address, value: uint256)</text>
<text text-anchor="start" x="793.7693" y="-1918.5" font-family="Times,serif" font-size="14.00" fill="#000000"> &#160;&#160;&#160;safeDecreaseAllowance(token: IERC20, spender: address, value: uint256)</text>
</g>
<!-- 3&#45;&gt;0 -->
<g id="edge6" class="edge">
<title>3&#45;&gt;0</title>
<path fill="none" stroke="#000000" stroke-dasharray="5,2" d="M785.5242,-2116.1479C782.6435,-2117.3105 779.7764,-2118.4617 776.9258,-2119.6 674.2791,-2160.5897 556.3116,-2203.0732 469.144,-2233.604"/>
<polygon fill="#000000" stroke="#000000" points="467.757,-2230.3812 459.4732,-2236.9865 470.068,-2236.9887 467.757,-2230.3812"/>
</g>
<!-- 3&#45;&gt;2 -->
<g id="edge7" class="edge">
<title>3&#45;&gt;2</title>
<path fill="none" stroke="#000000" stroke-dasharray="5,2" d="M989.0589,-2119.241C980.5666,-2151.099 971.4893,-2185.1519 963.9432,-2213.4606"/>
<polygon fill="#000000" stroke="#000000" points="960.5352,-2212.6571 961.3414,-2223.2212 967.2991,-2214.4601 960.5352,-2212.6571"/>
</g>
<!-- 1 -->
<g id="node7" class="node">
<title>1</title>
<polygon fill="#f2f2f2" stroke="#000000" points="1075.6259,-2156.1 1075.6259,-2398.5 1514.2257,-2398.5 1514.2257,-2156.1 1075.6259,-2156.1"/>
<text text-anchor="middle" x="1294.9258" y="-2381.9" font-family="Times,serif" font-size="14.00" fill="#000000">&lt;&lt;Interface&gt;&gt;</text>
<text text-anchor="middle" x="1294.9258" y="-2365.1" font-family="Times,serif" font-size="14.00" fill="#000000">IERC20</text>
<polyline fill="none" stroke="#000000" points="1075.6259,-2356.9 1514.2257,-2356.9 "/>
<text text-anchor="middle" x="1294.9258" y="-2340.3" font-family="Times,serif" font-size="14.00" fill="#000000"> </text>
<polyline fill="none" stroke="#000000" points="1075.6259,-2332.1 1514.2257,-2332.1 "/>
<text text-anchor="start" x="1083.6259" y="-2315.5" font-family="Times,serif" font-size="14.00" fill="#000000">External:</text>
<text text-anchor="start" x="1083.6259" y="-2298.7" font-family="Times,serif" font-size="14.00" fill="#000000"> &#160;&#160;&#160;&#160;totalSupply(): uint256</text>
<text text-anchor="start" x="1083.6259" y="-2281.9" font-family="Times,serif" font-size="14.00" fill="#000000"> &#160;&#160;&#160;&#160;balanceOf(account: address): uint256</text>
<text text-anchor="start" x="1083.6259" y="-2265.1" font-family="Times,serif" font-size="14.00" fill="#000000"> &#160;&#160;&#160;&#160;transfer(recipient: address, amount: uint256): bool</text>
<text text-anchor="start" x="1083.6259" y="-2248.3" font-family="Times,serif" font-size="14.00" fill="#000000"> &#160;&#160;&#160;&#160;allowance(owner: address, spender: address): uint256</text>
<text text-anchor="start" x="1083.6259" y="-2231.5" font-family="Times,serif" font-size="14.00" fill="#000000"> &#160;&#160;&#160;&#160;approve(spender: address, amount: uint256): bool</text>
<text text-anchor="start" x="1083.6259" y="-2214.7" font-family="Times,serif" font-size="14.00" fill="#000000"> &#160;&#160;&#160;&#160;transferFrom(sender: address, recipient: address, amount: uint256): bool</text>
<text text-anchor="start" x="1083.6259" y="-2197.9" font-family="Times,serif" font-size="14.00" fill="#000000">Public:</text>
<text text-anchor="start" x="1083.6259" y="-2181.1" font-family="Times,serif" font-size="14.00" fill="#000000"> &#160;&#160;&#160;&lt;&lt;event&gt;&gt; Transfer(from: address, to: address, value: uint256)</text>
<text text-anchor="start" x="1083.6259" y="-2164.3" font-family="Times,serif" font-size="14.00" fill="#000000"> &#160;&#160;&#160;&lt;&lt;event&gt;&gt; Approval(owner: address, spender: address, value: uint256)</text>
</g>
<!-- 3&#45;&gt;1 -->
<g id="edge8" class="edge">
<title>3&#45;&gt;1</title>
<path fill="none" stroke="#000000" stroke-dasharray="5,2" d="M1127.5976,-2119.241C1137.9318,-2129.0027 1148.4841,-2138.9705 1159.0128,-2148.916"/>
<polygon fill="#000000" stroke="#000000" points="1156.6222,-2151.4724 1166.2952,-2155.7949 1161.429,-2146.3837 1156.6222,-2151.4724"/>
</g>
<!-- 4 -->
<g id="node5" class="node">
<title>4</title>
<polygon fill="#f2f2f2" stroke="#000000" points="569.9111,-1952.3 569.9111,-2077.1 767.9405,-2077.1 767.9405,-1952.3 569.9111,-1952.3"/>
<text text-anchor="middle" x="668.9258" y="-2060.5" font-family="Times,serif" font-size="14.00" fill="#000000">ReentrancyGuard</text>
<polyline fill="none" stroke="#000000" points="569.9111,-2052.3 767.9405,-2052.3 "/>
<text text-anchor="start" x="577.9111" y="-2035.7" font-family="Times,serif" font-size="14.00" fill="#000000">Private:</text>
<text text-anchor="start" x="577.9111" y="-2018.9" font-family="Times,serif" font-size="14.00" fill="#000000"> &#160;&#160;_guardCounter: uint256</text>
<polyline fill="none" stroke="#000000" points="569.9111,-2010.7 767.9405,-2010.7 "/>
<text text-anchor="start" x="577.9111" y="-1994.1" font-family="Times,serif" font-size="14.00" fill="#000000">Public:</text>
<text text-anchor="start" x="577.9111" y="-1977.3" font-family="Times,serif" font-size="14.00" fill="#000000"> &#160;&#160;&#160;&lt;&lt;modifier&gt;&gt; nonReentrant()</text>
<text text-anchor="start" x="577.9111" y="-1960.5" font-family="Times,serif" font-size="14.00" fill="#000000"> &#160;&#160;&#160;constructor()</text>
</g>
<!-- 5&#45;&gt;0 -->
<g id="edge10" class="edge">
<title>5&#45;&gt;0</title>
<path fill="none" stroke="#000000" stroke-dasharray="5,2" d="M563.9772,-1873.498C506.8881,-1977.3149 440.3082,-2098.3909 395.0517,-2180.6903"/>
<polygon fill="#000000" stroke="#000000" points="391.9427,-2179.0804 390.191,-2189.5294 398.0765,-2182.4534 391.9427,-2179.0804"/>
</g>
<!-- 5&#45;&gt;3 -->
<g id="edge11" class="edge">
<title>5&#45;&gt;3</title>
<path fill="none" stroke="#000000" stroke-dasharray="5,2" d="M878.3897,-1873.4746C888.2026,-1883.478 897.8706,-1893.3336 907.2566,-1902.9019"/>
<polygon fill="#000000" stroke="#000000" points="904.8756,-1905.4727 914.377,-1910.1605 909.8727,-1900.5707 904.8756,-1905.4727"/>
</g>
<!-- 5&#45;&gt;4 -->
<g id="edge9" class="edge">
<title>5&#45;&gt;4</title>
<path fill="none" stroke="#000000" d="M672.1855,-1873.4746C671.798,-1890.2638 671.4201,-1906.6369 671.067,-1921.9335"/>
<polygon fill="none" stroke="#000000" points="660.5668,-1921.8257 670.3717,-1952.06 681.5612,-1922.3103 660.5668,-1921.8257"/>
</g>
<!-- 5&#45;&gt;1 -->
<g id="edge12" class="edge">
<title>5&#45;&gt;1</title>
<path fill="none" stroke="#000000" d="M983.8721,-1728.9953C1086.2485,-1764.7054 1190.928,-1821.0647 1256.9258,-1909.8 1284.1369,-1946.3858 1292.8443,-2055.6788 1295.2079,-2145.639"/>
<polygon fill="#000000" stroke="#000000" points="1291.7096,-2145.7563 1295.4476,-2155.6698 1298.7076,-2145.589 1291.7096,-2145.7563"/>
</g>
<!-- 7 -->
<g id="node8" class="node">
<title>7</title>
<polygon fill="#f2f2f2" stroke="#000000" points="211.5829,-887.3 211.5829,-1079.3 428.2687,-1079.3 428.2687,-887.3 211.5829,-887.3"/>
<text text-anchor="middle" x="319.9258" y="-1062.7" font-family="Times,serif" font-size="14.00" fill="#000000">FinalizableCrowdsale</text>
<polyline fill="none" stroke="#000000" points="211.5829,-1054.5 428.2687,-1054.5 "/>
<text text-anchor="start" x="219.5829" y="-1037.9" font-family="Times,serif" font-size="14.00" fill="#000000">Private:</text>
<text text-anchor="start" x="219.5829" y="-1021.1" font-family="Times,serif" font-size="14.00" fill="#000000"> &#160;&#160;_finalized: bool</text>
<polyline fill="none" stroke="#000000" points="211.5829,-1012.9 428.2687,-1012.9 "/>
<text text-anchor="start" x="219.5829" y="-996.3" font-family="Times,serif" font-size="14.00" fill="#000000">Internal:</text>
<text text-anchor="start" x="219.5829" y="-979.5" font-family="Times,serif" font-size="14.00" fill="#000000"> &#160;&#160;&#160;_finalization()</text>
<text text-anchor="start" x="219.5829" y="-962.7" font-family="Times,serif" font-size="14.00" fill="#000000">Public:</text>
<text text-anchor="start" x="219.5829" y="-945.9" font-family="Times,serif" font-size="14.00" fill="#000000"> &#160;&#160;&#160;&lt;&lt;event&gt;&gt; CrowdsaleFinalized()</text>
<text text-anchor="start" x="219.5829" y="-929.1" font-family="Times,serif" font-size="14.00" fill="#000000"> &#160;&#160;&#160;constructor()</text>
<text text-anchor="start" x="219.5829" y="-912.3" font-family="Times,serif" font-size="14.00" fill="#000000"> &#160;&#160;&#160;finalized(): bool</text>
<text text-anchor="start" x="219.5829" y="-895.5" font-family="Times,serif" font-size="14.00" fill="#000000"> &#160;&#160;&#160;finalize()</text>
</g>
<!-- 7&#45;&gt;6 -->
<g id="edge13" class="edge">
<title>7&#45;&gt;6</title>
<path fill="none" stroke="#000000" d="M319.9258,-1079.6773C319.9258,-1092.5751 319.9258,-1106.0942 319.9258,-1119.7856"/>
<polygon fill="none" stroke="#000000" points="309.4259,-1119.8595 319.9258,-1149.8595 330.4259,-1119.8596 309.4259,-1119.8595"/>
</g>
<!-- 7&#45;&gt;0 -->
<g id="edge14" class="edge">
<title>7&#45;&gt;0</title>
<path fill="none" stroke="#000000" stroke-dasharray="5,2" d="M211.3191,-1015.5499C147.1456,-1040.8293 71.1748,-1083.0708 32.9258,-1149.4 -28.5739,-1256.0495 11.592,-1305.1514 32.9258,-1426.4 82.994,-1710.9571 220.5013,-2025.6258 294.045,-2180.4151"/>
<polygon fill="#000000" stroke="#000000" points="290.9005,-2181.9526 298.3627,-2189.4736 297.2194,-2178.9406 290.9005,-2181.9526"/>
</g>
<!-- 8 -->
<g id="node9" class="node">
<title>8</title>
<polygon fill="#f2f2f2" stroke="#000000" points="880.0498,-1200.3 880.0498,-1375.5 1277.8018,-1375.5 1277.8018,-1200.3 880.0498,-1200.3"/>
<text text-anchor="middle" x="1078.9258" y="-1358.9" font-family="Times,serif" font-size="14.00" fill="#000000">CappedCrowdsale</text>
<polyline fill="none" stroke="#000000" points="880.0498,-1350.7 1277.8018,-1350.7 "/>
<text text-anchor="start" x="888.0498" y="-1334.1" font-family="Times,serif" font-size="14.00" fill="#000000">Private:</text>
<text text-anchor="start" x="888.0498" y="-1317.3" font-family="Times,serif" font-size="14.00" fill="#000000"> &#160;&#160;_cap: uint256</text>
<polyline fill="none" stroke="#000000" points="880.0498,-1309.1 1277.8018,-1309.1 "/>
<text text-anchor="start" x="888.0498" y="-1292.5" font-family="Times,serif" font-size="14.00" fill="#000000">Internal:</text>
<text text-anchor="start" x="888.0498" y="-1275.7" font-family="Times,serif" font-size="14.00" fill="#000000"> &#160;&#160;&#160;_preValidatePurchase(beneficiary: address, weiAmount: uint256)</text>
<text text-anchor="start" x="888.0498" y="-1258.9" font-family="Times,serif" font-size="14.00" fill="#000000">Public:</text>
<text text-anchor="start" x="888.0498" y="-1242.1" font-family="Times,serif" font-size="14.00" fill="#000000"> &#160;&#160;&#160;constructor(cap: uint256)</text>
<text text-anchor="start" x="888.0498" y="-1225.3" font-family="Times,serif" font-size="14.00" fill="#000000"> &#160;&#160;&#160;cap(): uint256</text>
<text text-anchor="start" x="888.0498" y="-1208.5" font-family="Times,serif" font-size="14.00" fill="#000000"> &#160;&#160;&#160;capReached(): bool</text>
</g>
<!-- 8&#45;&gt;0 -->
<g id="edge16" class="edge">
<title>8&#45;&gt;0</title>
<path fill="none" stroke="#000000" stroke-dasharray="5,2" d="M970.1191,-1375.5069C939.6644,-1395.6681 905.4144,-1414.6269 870.9258,-1426.4 817.1643,-1444.7522 400.1367,-1421.295 360.9258,-1462.4 336.5693,-1487.9331 338.6347,-1968.4814 340.7337,-2179.4177"/>
<polygon fill="#000000" stroke="#000000" points="337.2353,-2179.5973 340.8368,-2189.5612 344.2349,-2179.5261 337.2353,-2179.5973"/>
</g>
<!-- 8&#45;&gt;5 -->
<g id="edge15" class="edge">
<title>8&#45;&gt;5</title>
<path fill="none" stroke="#000000" d="M986.1942,-1375.6029C964.6732,-1395.9568 940.792,-1418.543 916.1133,-1441.8834"/>
<polygon fill="none" stroke="#000000" points="908.8412,-1434.3089 894.2601,-1462.5515 923.271,-1449.5661 908.8412,-1434.3089"/>
</g>
<!-- 9 -->
<g id="node10" class="node">
<title>9</title>
<polygon fill="#f2f2f2" stroke="#000000" points="616.0439,-1217.1 616.0439,-1358.7 861.8077,-1358.7 861.8077,-1217.1 616.0439,-1217.1"/>
<text text-anchor="middle" x="738.9258" y="-1342.1" font-family="Times,serif" font-size="14.00" fill="#000000">&lt;&lt;Library&gt;&gt;</text>
<text text-anchor="middle" x="738.9258" y="-1325.3" font-family="Times,serif" font-size="14.00" fill="#000000">Roles</text>
<polyline fill="none" stroke="#000000" points="616.0439,-1317.1 861.8077,-1317.1 "/>
<text text-anchor="middle" x="738.9258" y="-1300.5" font-family="Times,serif" font-size="14.00" fill="#000000"> </text>
<polyline fill="none" stroke="#000000" points="616.0439,-1292.3 861.8077,-1292.3 "/>
<text text-anchor="start" x="624.0439" y="-1275.7" font-family="Times,serif" font-size="14.00" fill="#000000">Internal:</text>
<text text-anchor="start" x="624.0439" y="-1258.9" font-family="Times,serif" font-size="14.00" fill="#000000"> &#160;&#160;&#160;add(role: Role, account: address)</text>
<text text-anchor="start" x="624.0439" y="-1242.1" font-family="Times,serif" font-size="14.00" fill="#000000"> &#160;&#160;&#160;remove(role: Role, account: address)</text>
<text text-anchor="start" x="624.0439" y="-1225.3" font-family="Times,serif" font-size="14.00" fill="#000000"> &#160;&#160;&#160;has(role: Role, account: address): bool</text>
</g>
<!-- 9struct0 -->
<g id="node11" class="node">
<title>9struct0</title>
<polygon fill="#f2f2f2" stroke="#000000" points="532.2601,-950.1 532.2601,-1016.5 731.5915,-1016.5 731.5915,-950.1 532.2601,-950.1"/>
<text text-anchor="middle" x="631.9258" y="-999.9" font-family="Times,serif" font-size="14.00" fill="#000000">&lt;&lt;struct&gt;&gt;</text>
<text text-anchor="middle" x="631.9258" y="-983.1" font-family="Times,serif" font-size="14.00" fill="#000000">Role</text>
<polyline fill="none" stroke="#000000" points="532.2601,-974.9 731.5915,-974.9 "/>
<text text-anchor="start" x="540.2601" y="-958.3" font-family="Times,serif" font-size="14.00" fill="#000000">bearer: mapping(address=&gt;bool)</text>
</g>
<!-- 9struct0&#45;&gt;9 -->
<g id="edge1" class="edge">
<title>9struct0&#45;&gt;9</title>
<path fill="none" stroke="#000000" d="M643.6828,-1016.7689C659.5261,-1061.8705 688.2519,-1143.645 710.027,-1205.6328"/>
<polygon fill="#000000" stroke="#000000" points="710.0302,-1205.642 715.7927,-1209.9771 714.0073,-1216.9638 708.2448,-1212.6286 710.0302,-1205.642"/>
</g>
<!-- 10 -->
<g id="node12" class="node">
<title>10</title>
<polygon fill="#f2f2f2" stroke="#000000" points="749.4121,-853.7 749.4121,-1112.9 1050.4395,-1112.9 1050.4395,-853.7 749.4121,-853.7"/>
<text text-anchor="middle" x="899.9258" y="-1096.3" font-family="Times,serif" font-size="14.00" fill="#000000">OperatorRole</text>
<polyline fill="none" stroke="#000000" points="749.4121,-1088.1 1050.4395,-1088.1 "/>
<text text-anchor="start" x="757.4121" y="-1071.5" font-family="Times,serif" font-size="14.00" fill="#000000">Private:</text>
<text text-anchor="start" x="757.4121" y="-1054.7" font-family="Times,serif" font-size="14.00" fill="#000000"> &#160;&#160;_operators: Roles.Role</text>
<polyline fill="none" stroke="#000000" points="749.4121,-1046.5 1050.4395,-1046.5 "/>
<text text-anchor="start" x="757.4121" y="-1029.9" font-family="Times,serif" font-size="14.00" fill="#000000">Internal:</text>
<text text-anchor="start" x="757.4121" y="-1013.1" font-family="Times,serif" font-size="14.00" fill="#000000"> &#160;&#160;&#160;_addOperator(account: address)</text>
<text text-anchor="start" x="757.4121" y="-996.3" font-family="Times,serif" font-size="14.00" fill="#000000"> &#160;&#160;&#160;_removeOperator(account: address)</text>
<text text-anchor="start" x="757.4121" y="-979.5" font-family="Times,serif" font-size="14.00" fill="#000000">Public:</text>
<text text-anchor="start" x="757.4121" y="-962.7" font-family="Times,serif" font-size="14.00" fill="#000000"> &#160;&#160;&#160;&lt;&lt;event&gt;&gt; OperatorAdded(account: address)</text>
<text text-anchor="start" x="757.4121" y="-945.9" font-family="Times,serif" font-size="14.00" fill="#000000"> &#160;&#160;&#160;&lt;&lt;event&gt;&gt; OperatorRemoved(account: address)</text>
<text text-anchor="start" x="757.4121" y="-929.1" font-family="Times,serif" font-size="14.00" fill="#000000"> &#160;&#160;&#160;&lt;&lt;modifier&gt;&gt; onlyOperator()</text>
<text text-anchor="start" x="757.4121" y="-912.3" font-family="Times,serif" font-size="14.00" fill="#000000"> &#160;&#160;&#160;constructor()</text>
<text text-anchor="start" x="757.4121" y="-895.5" font-family="Times,serif" font-size="14.00" fill="#000000"> &#160;&#160;&#160;isOperator(account: address): bool</text>
<text text-anchor="start" x="757.4121" y="-878.7" font-family="Times,serif" font-size="14.00" fill="#000000"> &#160;&#160;&#160;addOperator(account: address)</text>
<text text-anchor="start" x="757.4121" y="-861.9" font-family="Times,serif" font-size="14.00" fill="#000000"> &#160;&#160;&#160;renounceOperator()</text>
</g>
<!-- 10&#45;&gt;9 -->
<g id="edge17" class="edge">
<title>10&#45;&gt;9</title>
<path fill="none" stroke="#000000" d="M831.4139,-1112.9195C814.3501,-1145.2028 796.5513,-1178.8769 781.1773,-1207.9633"/>
<polygon fill="#000000" stroke="#000000" points="778.0662,-1206.3597 776.4874,-1216.8362 784.2549,-1209.6308 778.0662,-1206.3597"/>
</g>
<!-- 11 -->
<g id="node13" class="node">
<title>11</title>
<polygon fill="#f2f2f2" stroke="#000000" points="396.7766,-171.1 396.7766,-816.7 1403.075,-816.7 1403.075,-171.1 396.7766,-171.1"/>
<text text-anchor="middle" x="899.9258" y="-800.1" font-family="Times,serif" font-size="14.00" fill="#000000">FriendlyCrowdsale</text>
<polyline fill="none" stroke="#000000" points="396.7766,-791.9 1403.075,-791.9 "/>
<text text-anchor="start" x="404.7766" y="-775.3" font-family="Times,serif" font-size="14.00" fill="#000000">Private:</text>
<text text-anchor="start" x="404.7766" y="-758.5" font-family="Times,serif" font-size="14.00" fill="#000000"> &#160;&#160;_state: State</text>
<text text-anchor="start" x="404.7766" y="-741.7" font-family="Times,serif" font-size="14.00" fill="#000000"> &#160;&#160;_feeWallet: address</text>
<text text-anchor="start" x="404.7766" y="-724.9" font-family="Times,serif" font-size="14.00" fill="#000000"> &#160;&#160;_investors: address[]</text>
<text text-anchor="start" x="404.7766" y="-708.1" font-family="Times,serif" font-size="14.00" fill="#000000"> &#160;&#160;_escrowList: mapping(address=&gt;Escrow)</text>
<text text-anchor="start" x="404.7766" y="-691.3" font-family="Times,serif" font-size="14.00" fill="#000000"> &#160;&#160;_goal: uint256</text>
<text text-anchor="start" x="404.7766" y="-674.5" font-family="Times,serif" font-size="14.00" fill="#000000">Public:</text>
<text text-anchor="start" x="404.7766" y="-657.7" font-family="Times,serif" font-size="14.00" fill="#000000"> &#160;&#160;_feePerMille: uint256</text>
<polyline fill="none" stroke="#000000" points="396.7766,-649.5 1403.075,-649.5 "/>
<text text-anchor="start" x="404.7766" y="-632.9" font-family="Times,serif" font-size="14.00" fill="#000000">Internal:</text>
<text text-anchor="start" x="404.7766" y="-616.1" font-family="Times,serif" font-size="14.00" fill="#000000"> &#160;&#160;&#160;_preValidatePurchase(_beneficiary: address, _weiAmount: uint256)</text>
<text text-anchor="start" x="404.7766" y="-599.3" font-family="Times,serif" font-size="14.00" fill="#000000"> &#160;&#160;&#160;_updatePurchasingState(beneficiary: address, weiAmount: uint256)</text>
<text text-anchor="start" x="404.7766" y="-582.5" font-family="Times,serif" font-size="14.00" fill="#000000"> &#160;&#160;&#160;_finalization()</text>
<text text-anchor="start" x="404.7766" y="-565.7" font-family="Times,serif" font-size="14.00" fill="#000000"> &#160;&#160;&#160;_forwardFunds()</text>
<text text-anchor="start" x="404.7766" y="-548.9" font-family="Times,serif" font-size="14.00" fill="#000000"> &#160;&#160;&#160;_close()</text>
<text text-anchor="start" x="404.7766" y="-532.1" font-family="Times,serif" font-size="14.00" fill="#000000"> &#160;&#160;&#160;_enableRefunds()</text>
<text text-anchor="start" x="404.7766" y="-515.3" font-family="Times,serif" font-size="14.00" fill="#000000">Public:</text>
<text text-anchor="start" x="404.7766" y="-498.5" font-family="Times,serif" font-size="14.00" fill="#000000"> &#160;&#160;&#160;&lt;&lt;event&gt;&gt; Enabled()</text>
<text text-anchor="start" x="404.7766" y="-481.7" font-family="Times,serif" font-size="14.00" fill="#000000"> &#160;&#160;&#160;&lt;&lt;event&gt;&gt; RefundsEnabled()</text>
<text text-anchor="start" x="404.7766" y="-464.9" font-family="Times,serif" font-size="14.00" fill="#000000"> &#160;&#160;&#160;&lt;&lt;event&gt;&gt; Expired()</text>
<text text-anchor="start" x="404.7766" y="-448.1" font-family="Times,serif" font-size="14.00" fill="#000000"> &#160;&#160;&#160;&lt;&lt;event&gt;&gt; Withdrawn(refundee: address, weiAmount: uint256)</text>
<text text-anchor="start" x="404.7766" y="-431.3" font-family="Times,serif" font-size="14.00" fill="#000000"> &#160;&#160;&#160;&lt;&lt;event&gt;&gt; RefundsClosed()</text>
<text text-anchor="start" x="404.7766" y="-414.5" font-family="Times,serif" font-size="14.00" fill="#000000"> &#160;&#160;&#160;constructor(openingTime: uint256, closingTime: uint256, cap: uint256, goal: uint256, rate: uint256, wallet: address, token: IERC20, feeWallet: address, feePerMille: uint256)</text>
<text text-anchor="start" x="404.7766" y="-397.7" font-family="Times,serif" font-size="14.00" fill="#000000"> &#160;&#160;&#160;feeWallet(): address</text>
<text text-anchor="start" x="404.7766" y="-380.9" font-family="Times,serif" font-size="14.00" fill="#000000"> &#160;&#160;&#160;feePerMille(): uint256</text>
<text text-anchor="start" x="404.7766" y="-364.1" font-family="Times,serif" font-size="14.00" fill="#000000"> &#160;&#160;&#160;goal(): uint256</text>
<text text-anchor="start" x="404.7766" y="-347.3" font-family="Times,serif" font-size="14.00" fill="#000000"> &#160;&#160;&#160;state(): State</text>
<text text-anchor="start" x="404.7766" y="-330.5" font-family="Times,serif" font-size="14.00" fill="#000000"> &#160;&#160;&#160;setExpiredAndWithdraw()</text>
<text text-anchor="start" x="404.7766" y="-313.7" font-family="Times,serif" font-size="14.00" fill="#000000"> &#160;&#160;&#160;ended(): bool</text>
<text text-anchor="start" x="404.7766" y="-296.9" font-family="Times,serif" font-size="14.00" fill="#000000"> &#160;&#160;&#160;goalReached(): bool</text>
<text text-anchor="start" x="404.7766" y="-280.1" font-family="Times,serif" font-size="14.00" fill="#000000"> &#160;&#160;&#160;investorsNumber(): uint</text>
<text text-anchor="start" x="404.7766" y="-263.3" font-family="Times,serif" font-size="14.00" fill="#000000"> &#160;&#160;&#160;investorExists(account: address): bool</text>
<text text-anchor="start" x="404.7766" y="-246.5" font-family="Times,serif" font-size="14.00" fill="#000000"> &#160;&#160;&#160;getInvestorAddress(index: uint): address</text>
<text text-anchor="start" x="404.7766" y="-229.7" font-family="Times,serif" font-size="14.00" fill="#000000"> &#160;&#160;&#160;weiContribution(account: address): uint256</text>
<text text-anchor="start" x="404.7766" y="-212.9" font-family="Times,serif" font-size="14.00" fill="#000000"> &#160;&#160;&#160;enable()</text>
<text text-anchor="start" x="404.7766" y="-196.1" font-family="Times,serif" font-size="14.00" fill="#000000"> &#160;&#160;&#160;claimRefund(refundee: address)</text>
<text text-anchor="start" x="404.7766" y="-179.3" font-family="Times,serif" font-size="14.00" fill="#000000"> &#160;&#160;&#160;started(): bool</text>
</g>
<!-- 11&#45;&gt;1 -->
<g id="edge21" class="edge">
<title>11&#45;&gt;1</title>
<path fill="none" stroke="#000000" stroke-dasharray="5,2" d="M1156.2292,-816.755C1240.9234,-954.0055 1313.9258,-1120.7803 1313.9258,-1287.9 1313.9258,-1287.9 1313.9258,-1287.9 1313.9258,-1668.1 1313.9258,-1832.7751 1306.9043,-2022.3676 1301.3982,-2145.726"/>
<polygon fill="#000000" stroke="#000000" points="1297.8903,-2145.8235 1300.9376,-2155.9707 1304.8833,-2146.138 1297.8903,-2145.8235"/>
</g>
<!-- 11&#45;&gt;7 -->
<g id="edge18" class="edge">
<title>11&#45;&gt;7</title>
<path fill="none" stroke="#000000" d="M517.0967,-816.9286C494.107,-836.3271 471.9874,-854.9915 451.4056,-872.3583"/>
<polygon fill="none" stroke="#000000" points="444.5829,-864.3767 428.426,-891.7483 458.1256,-880.4265 444.5829,-864.3767"/>
</g>
<!-- 11&#45;&gt;8 -->
<g id="edge19" class="edge">
<title>11&#45;&gt;8</title>
<path fill="none" stroke="#000000" d="M1050.2838,-816.8477C1053.8508,-829.0112 1057.0885,-841.1532 1059.9258,-853.2 1084.6855,-958.3233 1087.7159,-1081.6087 1085.5652,-1169.9831"/>
<polygon fill="none" stroke="#000000" points="1075.0699,-1169.6693 1084.6039,-1199.9902 1096.0592,-1170.3418 1075.0699,-1169.6693"/>
</g>
<!-- 11&#45;&gt;10 -->
<g id="edge20" class="edge">
<title>11&#45;&gt;10</title>
<path fill="none" stroke="#000000" d="M899.9258,-816.9286C899.9258,-819.0898 899.9258,-821.242 899.9258,-823.3842"/>
<polygon fill="none" stroke="#000000" points="889.4259,-823.5731 899.9258,-853.5731 910.4259,-823.5731 889.4259,-823.5731"/>
</g>
<!-- 11struct0 -->
<g id="node14" class="node">
<title>11struct0</title>
<polygon fill="#f2f2f2" stroke="#000000" points="791.6197,-25.7 791.6197,-108.9 898.2319,-108.9 898.2319,-25.7 791.6197,-25.7"/>
<text text-anchor="middle" x="844.9258" y="-92.3" font-family="Times,serif" font-size="14.00" fill="#000000">&lt;&lt;struct&gt;&gt;</text>
<text text-anchor="middle" x="844.9258" y="-75.5" font-family="Times,serif" font-size="14.00" fill="#000000">Escrow</text>
<polyline fill="none" stroke="#000000" points="791.6197,-67.3 898.2319,-67.3 "/>
<text text-anchor="start" x="799.6197" y="-50.7" font-family="Times,serif" font-size="14.00" fill="#000000">exists: bool</text>
<text text-anchor="start" x="799.6197" y="-33.9" font-family="Times,serif" font-size="14.00" fill="#000000">deposit: uint256</text>
</g>
<!-- 11struct0&#45;&gt;11 -->
<g id="edge2" class="edge">
<title>11struct0&#45;&gt;11</title>
<path fill="none" stroke="#000000" d="M850.2996,-108.9809C852.1127,-123.0442 854.3026,-140.0294 856.7393,-158.9295"/>
<polygon fill="#000000" stroke="#000000" points="856.7527,-159.0344 861.4872,-164.4737 858.2872,-170.9359 853.5528,-165.4967 856.7527,-159.0344"/>
</g>
<!-- 11enum0 -->
<g id="node15" class="node">
<title>11enum0</title>
<polygon fill="#f2f2f2" stroke="#000000" points="916.584,-.5 916.584,-134.1 995.2676,-134.1 995.2676,-.5 916.584,-.5"/>
<text text-anchor="middle" x="955.9258" y="-117.5" font-family="Times,serif" font-size="14.00" fill="#000000">&lt;&lt;enum&gt;&gt;</text>
<text text-anchor="middle" x="955.9258" y="-100.7" font-family="Times,serif" font-size="14.00" fill="#000000">State</text>
<polyline fill="none" stroke="#000000" points="916.584,-92.5 995.2676,-92.5 "/>
<text text-anchor="start" x="924.584" y="-75.9" font-family="Times,serif" font-size="14.00" fill="#000000">Review</text>
<text text-anchor="start" x="924.584" y="-59.1" font-family="Times,serif" font-size="14.00" fill="#000000">Active</text>
<text text-anchor="start" x="924.584" y="-42.3" font-family="Times,serif" font-size="14.00" fill="#000000">Refunding</text>
<text text-anchor="start" x="924.584" y="-25.5" font-family="Times,serif" font-size="14.00" fill="#000000">Closed</text>
<text text-anchor="start" x="924.584" y="-8.7" font-family="Times,serif" font-size="14.00" fill="#000000">Expired</text>
</g>
<!-- 11enum0&#45;&gt;11 -->
<g id="edge3" class="edge">
<title>11enum0&#45;&gt;11</title>
<path fill="none" stroke="#000000" d="M947.1142,-134.4255C946.0978,-142.1687 945.0163,-150.4071 943.8825,-159.0446"/>
<polygon fill="#000000" stroke="#000000" points="943.867,-159.1636 947.052,-165.6332 942.305,-171.0615 939.12,-164.5919 943.867,-159.1636"/>
</g>
</g>
</svg>
